# xmcd
#
# Track frame offsets: 
#        150
#        17566
#        35647
#        52337
#        66947
#        82181
#        94553
#        106560
#        140080
#        158815
#
# Disc length: 2383 seconds
#
# Revision: 0
# Processed by: cddbd v1.5.2PL0 Copyright (c) Steve Scherf et al.
# Submitted via: ExactAudioCopy v0.99pb3
#
DISCID=84094d0a
DTITLE=Mustang Sally - Six Strings And A Honkytonk
DYEAR=2005
DGENRE=Country
TTITLE0=Can't Take The Honkytonk Out Of The Girl
TTITLE1=Run Run Run
TTITLE2=Roll In The Hay
TTITLE3=Needed
TTITLE4=Girl's Night Out
TTITLE5=Hello Hurt
TTITLE6=Catharsis
TTITLE7=Can't You See
TTITLE8=Heartache Tonight
TTITLE9=Back In Black
EXTD=
EXTT0=
EXTT1=
EXTT2=
EXTT3=
EXTT4=
EXTT5=
EXTT6=
EXTT7=
EXTT8=
EXTT9=
PLAYORDER=
